<svg id="Layer_2" data-name="Layer 2" xmlns="http://www.w3.org/2000/svg" width="3.78in" height="2.26in" viewBox="0 0 272.47 162.67"><defs><style>.cls-1,.cls-17{fill:#595753;}.cls-1,.cls-8,.cls-9{stroke:#000;}.cls-1{stroke-width:10px;}.cls-2{fill:#93928f;}.cls-3{fill:#ff0;stroke:#fff;}.cls-3,.cls-8,.cls-9{stroke-linecap:round;}.cls-3,.cls-8{stroke-width:0.3px;}.cls-4{opacity:0.05;}.cls-5,.cls-7{fill:#878683;}.cls-6{fill:#a5a49d;}.cls-13,.cls-7{opacity:0.1;}.cls-9{stroke-width:0.36px;}.cls-10{fill:#ce9530;}.cls-11{fill:#d8a14a;}.cls-12{fill:#9b6f2f;}.cls-14{fill:#bc8835;}.cls-15{fill:#9b6d2c;}.cls-16{fill:#a09f9c;}</style></defs><title>toxic-barrel</title><path class="cls-1" d="M248.57,19.74c-0.19,0-.37,0-0.56,0-4.26-4.73-9-7.39-14.08-7.39H45.43v0.24h0a14.31,14.31,0,0,0-2.5-.24c-18,0-32.67,34-32.67,75.83C10.27,124.08,21,154.11,35.4,162a5.78,5.78,0,0,0,4.82,2,8,8,0,0,0,1.17-.09,13.07,13.07,0,0,0,4-.15v0.24h188.5a14.2,14.2,0,0,0,1.5-.09l0.33,0a14.65,14.65,0,0,0,1.45-.26l0.23-.06c0.43-.11.85-0.23,1.28-0.38l0.3-.1q0.69-.25,1.37-0.57l0.34-.16q0.6-.29,1.19-0.64l0.25-.14c0.44-.26.87-0.55,1.3-0.85l0.4-.29c0.4-.3.8-0.61,1.2-0.94l0.32-.28q0.51-.45,1-0.93l0.45-.44,0.56-.58a8.84,8.84,0,0,0,1.17.08c13.35,0,24.17-30.82,24.17-68.83S261.91,19.74,248.57,19.74ZM15.31,84.66s0,0.08,0,.11c0-.12,0-0.24,0-0.37C15.31,84.49,15.31,84.58,15.31,84.66Zm0.11-3.56v0.25c0-.23,0-0.47,0-0.7C15.42,80.8,15.42,80.95,15.42,81.1Zm0.17,17.7c0-.49-0.05-1-0.08-1.48,0,0.49.05,1,.08,1.47h0Zm0-21.35c0,0.16,0,.32,0,0.48,0-.33,0-0.67.06-1C15.62,77.11,15.61,77.28,15.6,77.45Zm0.51,27.9h0c0,0.46.09,0.92,0.14,1.38C16.2,106.28,16.16,105.82,16.11,105.35Zm0.54-39-0.08.57c0-.25.07-0.5,0.1-0.75ZM17.12,63c0,0.25-.08.5-0.12,0.76q0.08-.52.16-1Zm1.68,59.5-0.1-.47,0.1,0.46h0ZM19.71,50l-0.19.75c0.08-.31.15-0.61,0.23-0.92Zm0.69-2.62-0.17.6c0.1-.38.21-0.76,0.31-1.14Zm0.78,84.32-0.11-.37,0.11,0.35v0Zm0.1-87.34-0.21.67,0.29-.94Zm0.83-2.59L22,42.17l0.21-.62Zm1.06,95.85L23,137.07l0.22,0.59h0ZM23,39.28l0,0.1,0.23-.63Z" transform="translate(-5.27 -6.39)"/><path class="cls-1" d="M248.57,18.74c-0.19,0-.37,0-0.56,0-4.26-4.73-9-7.39-14.08-7.39H45.43v0.24h0a14.31,14.31,0,0,0-2.5-.24c-18,0-32.67,34-32.67,75.83C10.27,123.08,21,153.11,35.4,161a5.78,5.78,0,0,0,4.82,2,8,8,0,0,0,1.17-.09,13.07,13.07,0,0,0,4-.15v0.24h188.5a14.2,14.2,0,0,0,1.5-.09l0.33,0a14.65,14.65,0,0,0,1.45-.26l0.23-.06c0.43-.11.85-0.23,1.28-0.38l0.3-.1q0.69-.25,1.37-0.57l0.34-.16q0.6-.29,1.19-0.64l0.25-.14c0.44-.26.87-0.55,1.3-0.85l0.4-.29c0.4-.3.8-0.61,1.2-0.94l0.32-.28q0.51-.45,1-0.93l0.45-.44,0.56-.58a8.84,8.84,0,0,0,1.17.08c13.35,0,24.17-30.82,24.17-68.83S261.91,18.74,248.57,18.74ZM15.31,83.66s0,0.08,0,.11c0-.12,0-0.24,0-0.37C15.31,83.49,15.31,83.58,15.31,83.66Zm0.11-3.56v0.25c0-.23,0-0.47,0-0.7C15.42,79.8,15.42,79.95,15.42,80.1Zm0.17,17.7c0-.49-0.05-1-0.08-1.48,0,0.49.05,1,.08,1.47h0Zm0-21.35c0,0.16,0,.32,0,0.48,0-.33,0-0.67.06-1C15.62,76.11,15.61,76.28,15.6,76.45Zm0.51,27.9h0c0,0.46.09,0.92,0.14,1.38C16.2,105.28,16.16,104.82,16.11,104.35Zm0.54-39-0.08.57c0-.25.07-0.5,0.1-0.75ZM17.12,62c0,0.25-.08.5-0.12,0.76q0.08-.52.16-1Zm1.68,59.5-0.1-.47,0.1,0.46h0ZM19.71,49l-0.19.75c0.08-.31.15-0.61,0.23-0.92Zm0.69-2.62-0.17.6c0.1-.38.21-0.76,0.31-1.14Zm0.78,84.32-0.11-.37,0.11,0.35v0Zm0.1-87.34-0.21.67,0.29-.94Zm0.83-2.59L22,41.17l0.21-.62Zm1.06,95.85L23,136.07l0.22,0.59h0ZM23,38.28l0,0.1,0.23-.63Z" transform="translate(-5.27 -6.39)"/><ellipse class="cls-2" cx="243.37" cy="81.58" rx="24.17" ry="68.83"/><path class="cls-3" d="M234,11.79H45.5V163.45H234c18,0,32.67-34,32.67-75.83S252,11.79,234,11.79Z" transform="translate(-5.27 -6.39)"/><path class="cls-4" d="M45.5,57.47v106H234c18,0,32.67-34,32.67-75.83A165.14,165.14,0,0,0,264,57.47H45.5Z" transform="translate(-5.27 -6.39)"/><path class="cls-4" d="M45.5,129.13v34.32H234c11.44,0,21.5-13.66,27.33-34.32H45.5Z" transform="translate(-5.27 -6.39)"/><path class="cls-2" d="M15.33,87.62C15.33,47.69,28.63,15,45.5,12a14.3,14.3,0,0,0-2.5-.24c-18,0-32.67,34-32.67,75.83S25,163.45,43,163.45a14.49,14.49,0,0,0,2.5-.24C28.63,160.24,15.33,127.55,15.33,87.62Z" transform="translate(-5.27 -6.39)"/><ellipse class="cls-5" cx="42.73" cy="81.23" rx="32.67" ry="75.83"/><path class="cls-6" d="M45,13.79a15.56,15.56,0,0,0-7.52,2C24.6,26,15.33,54.29,15.33,87.62,15.33,129.5,30,163.45,48,163.45a15.57,15.57,0,0,0,7.52-2C68.4,151.24,77.67,123,77.67,89.62,77.67,47.74,63,13.79,45,13.79Z" transform="translate(-5.27 -6.39)"/><path class="cls-7" d="M100.33,11.79a14.44,14.44,0,0,0-2.5.24C114.7,15,128,47.69,128,87.62s-13.29,72.62-30.17,75.59a14.39,14.39,0,0,0,2.5.24c18,0,32.67-34,32.67-75.83S118.37,11.79,100.33,11.79Z" transform="translate(-5.27 -6.39)"/><path class="cls-7" d="M199.33,11.79a14.44,14.44,0,0,0-2.5.24C213.71,15,227,47.69,227,87.62s-13.29,72.62-30.17,75.59a14.39,14.39,0,0,0,2.5.24c18,0,32.67-34,32.67-75.83S217.37,11.79,199.33,11.79Z" transform="translate(-5.27 -6.39)"/><path id="path11669-6-1" class="cls-8" d="M200.81,43.42L186,69.08a12.66,12.66,0,0,1,6.3,11v0H222A42.32,42.32,0,0,0,200.81,43.42Zm-42.39,0a42.38,42.38,0,0,0-21.14,36.7H167V80a12.65,12.65,0,0,1,6.27-10.93L158.42,43.44h0ZM173.34,91l-14.85,25.74a42.3,42.3,0,0,0,42.25.05L185.87,91.07A12.66,12.66,0,0,1,173.34,91Z" transform="translate(-5.27 -6.39)"/><path id="path11669" class="cls-9" d="M188.06,80.19a8.43,8.43,0,1,1-8.43-8.43,8.43,8.43,0,0,1,8.43,8.43h0Z" transform="translate(-5.27 -6.39)"/><ellipse class="cls-10" cx="44.82" cy="102.89" rx="8.51" ry="9.93"/><ellipse class="cls-10" cx="50.56" cy="112" rx="6.5" ry="6.79"/><ellipse class="cls-10" cx="43.87" cy="115.08" rx="4.83" ry="4.91"/><ellipse class="cls-10" cx="23.31" cy="108.19" rx="5.38" ry="6.27"/><ellipse class="cls-10" cx="29.8" cy="98.78" rx="7.15" ry="7.91"/><ellipse class="cls-10" cx="38.77" cy="79.83" rx="2.46" ry="2.4"/><ellipse class="cls-10" cx="44.28" cy="126.98" rx="2.47" ry="3.61"/><ellipse class="cls-10" cx="51.39" cy="128.13" rx="2.69" ry="3.06"/><ellipse class="cls-10" cx="32.39" cy="140" rx="6.38" ry="7.32"/><ellipse class="cls-10" cx="39.5" cy="132.63" rx="5.31" ry="5.13"/><ellipse class="cls-11" cx="23.31" cy="130.96" rx="5.38" ry="5.3"/><ellipse class="cls-11" cx="28.78" cy="95.8" rx="2.03" ry="1.34"/><ellipse class="cls-11" cx="41.48" cy="100.84" rx="1.25" ry="2.06"/><ellipse class="cls-11" cx="43.02" cy="114.39" rx="2.84" ry="3.51"/><ellipse class="cls-11" cx="43.13" cy="126.58" rx="1.15" ry="0.92"/><ellipse class="cls-11" cx="40.88" cy="126.47" rx="2.11" ry="2.3"/><ellipse class="cls-11" cx="48.62" cy="119.71" rx="2.76" ry="3.03"/><ellipse class="cls-11" cx="39.72" cy="91.84" rx="3.41" ry="3.96"/><ellipse class="cls-11" cx="42.92" cy="82.82" rx="0.94" ry="0.59"/><ellipse class="cls-11" cx="24.43" cy="106.53" rx="3.99" ry="3.64"/><ellipse class="cls-12" cx="23.31" cy="124.43" rx="5.38" ry="6.53"/><ellipse class="cls-12" cx="31.07" cy="131.41" rx="5.87" ry="6.35"/><ellipse class="cls-12" cx="22.54" cy="117.8" rx="1.89" ry="1.91"/><circle class="cls-12" cx="35.78" cy="129.77" r="4.71"/><ellipse class="cls-13" cx="32.82" cy="115.9" rx="10.17" ry="16"/><ellipse class="cls-10" cx="55.57" cy="90.43" rx="1.49" ry="2.54"/><ellipse class="cls-10" cx="14" cy="94.36" rx="3.94" ry="6.47"/><ellipse class="cls-10" cx="15.97" cy="75.62" rx="1.97" ry="1.82"/><ellipse class="cls-10" cx="19.19" cy="87.92" rx="1.25" ry="2.51"/><ellipse class="cls-10" cx="14.99" cy="104.52" rx="0.98" ry="3.68"/><ellipse class="cls-10" cx="14.66" cy="117.19" rx="1.31" ry="2.8"/><ellipse class="cls-10" cx="28.78" cy="143.67" rx="2.03" ry="0.24"/><ellipse class="cls-10" cx="35.25" cy="150.41" rx="1.06"/><ellipse class="cls-10" cx="41.79" cy="145.37" rx="2.08" ry="1.94"/><ellipse class="cls-10" cx="49.07" cy="138.03" rx="4.26" ry="5.4"/><ellipse class="cls-10" cx="35.02" cy="153.74" rx="5.22" ry="3.33"/><ellipse class="cls-14" cx="41.68" cy="141.56" rx="2.18" ry="3.81"/><ellipse class="cls-14" cx="50" cy="125.44" rx="1.38" ry="2.69"/><ellipse class="cls-14" cx="26.05" cy="139.85" rx="2.73" ry="3.58"/><ellipse class="cls-14" cx="34.98" cy="144.64" rx="0.8" ry="0.73"/><ellipse class="cls-14" cx="41.74" cy="142.5" rx="0.05" ry="0.93"/><ellipse class="cls-14" cx="17.88" cy="124.86" rx="1.9" ry="2.12"/><ellipse class="cls-14" cx="18.31" cy="114.9" rx="2.34" ry="2.9"/><ellipse class="cls-14" cx="22.92" cy="62.39" rx="2.28" ry="2.98"/><ellipse class="cls-14" cx="27.37" cy="41.66" rx="1.32" ry="2.25"/><ellipse class="cls-15" cx="38.59" cy="28.91" rx="1.64" ry="1"/><ellipse class="cls-15" cx="30.58" cy="138.13" rx="1.8" ry="1.87"/><ellipse class="cls-15" cx="36.63" cy="148.86" rx="0.32" ry="1.55"/><ellipse class="cls-15" cx="28.27" cy="145.49" rx="1.53" ry="1.82"/><ellipse class="cls-15" cx="23.25" cy="132.51" rx="2.8" ry="3.75"/><ellipse class="cls-15" cx="19.26" cy="117.68" rx="3.28" ry="5.68"/><ellipse class="cls-16" cx="30.82" cy="115.9" rx="10.17" ry="16"/><ellipse class="cls-17" cx="30.84" cy="115.73" rx="8.19" ry="12.9"/></svg>